<svg width="193" height="57" viewBox="0 0 193 57" fill="none" xmlns="http://www.w3.org/2000/svg">
<g clip-path="url(#clip0_5446_83616)">
<path d="M176.83 0.000185249H16.1793C15.5937 0.000185249 15.0151 0.000185249 14.4311 0.00303524C13.9422 0.00588523 13.4572 0.0141645 12.9636 0.0211327C11.8913 0.0323927 10.8215 0.116574 9.76351 0.272944C8.70703 0.432718 7.68363 0.733938 6.72795 1.16642C5.77344 1.60255 4.90127 2.16927 4.14309 2.846C3.38093 3.52083 2.74561 4.30084 2.26156 5.15605C1.77618 6.00955 1.43961 6.92415 1.26349 7.86827C1.08569 8.8112 0.990011 9.765 0.977318 10.7211C0.962499 11.158 0.960934 11.5964 0.953125 12.0333V44.971C0.960934 45.4135 0.962499 45.8421 0.977318 46.2847C0.990015 47.2408 1.08569 48.1946 1.26349 49.1374C1.43913 50.0821 1.77571 50.9972 2.26156 51.8511C2.74539 52.7035 3.3808 53.4804 4.14309 54.1514C4.8984 54.8312 5.77113 55.3983 6.72795 55.8311C7.68363 56.2647 8.70691 56.5677 9.76351 56.73C10.8217 56.8851 11.8913 56.9693 12.9636 56.9819C13.4572 56.9916 13.9422 56.9972 14.4311 56.9972C15.0151 57 15.5937 57 16.1793 57H176.83C177.404 57 177.987 57 178.561 56.9972C179.048 56.9972 179.547 56.9916 180.033 56.9819C181.103 56.97 182.171 56.8857 183.227 56.73C184.287 56.5666 185.314 56.2636 186.274 55.8311C187.23 55.398 188.102 54.8309 188.857 54.1514C189.617 53.4777 190.254 52.7014 190.744 51.8511C191.226 50.9966 191.559 50.0816 191.732 49.1374C191.91 48.1944 192.01 47.2409 192.029 46.2847C192.035 45.8421 192.035 45.4135 192.035 44.971C192.047 44.4533 192.047 43.9385 192.047 43.4124V13.5891C192.047 13.0673 192.047 12.5496 192.035 12.0333C192.035 11.5964 192.035 11.158 192.029 10.7211C192.01 9.76486 191.91 8.81127 191.732 7.86821C191.559 6.92464 191.226 6.01011 190.744 5.15599C189.758 3.44183 188.195 2.04651 186.274 1.16629C185.314 0.734866 184.287 0.433726 183.227 0.272815C182.171 0.115756 181.103 0.0315462 180.033 0.0209332C179.547 0.0139792 179.048 0.00562873 178.561 0.00284999C177.987 0 177.404 0.000185249 176.83 0.000185249Z" fill="#A6A6A6"/>
<path d="M14.4383 55.7529C13.9517 55.7529 13.4769 55.7474 12.9942 55.7377C11.9942 55.726 10.9965 55.6483 10.0093 55.5052C9.08886 55.3638 8.19716 55.1006 7.36365 54.7245C6.53779 54.3515 5.78454 53.8623 5.13275 53.2758C4.47153 52.6963 3.92103 52.024 3.50308 51.2858C3.08051 50.5428 2.78807 49.7464 2.63595 48.9243C2.47166 48.041 2.38278 47.1478 2.37006 46.2525C2.35993 45.9519 2.34668 44.9513 2.34668 44.9513V12.0331C2.34668 12.0331 2.3608 11.0478 2.37014 10.7584C2.38232 9.86446 2.47068 8.97266 2.63448 8.0907C2.78689 7.26636 3.07955 6.46765 3.50234 5.72221C3.91876 4.98451 4.4662 4.31179 5.12344 3.73014C5.77994 3.14296 6.5356 2.65131 7.36287 2.27312C8.19446 1.89818 9.08447 1.63689 10.0031 1.49801C10.9935 1.35347 11.9947 1.27532 12.9981 1.26423L14.4391 1.24683H178.553L180.011 1.26492C181.005 1.27547 181.997 1.35292 182.978 1.49661C183.906 1.63724 184.806 1.90035 185.647 2.2773C187.304 3.03945 188.653 4.24525 189.503 5.72569C189.919 6.46598 190.207 7.25818 190.358 8.07539C190.524 8.96459 190.616 9.8634 190.635 10.7647C190.64 11.1682 190.64 11.6017 190.64 12.0331C190.653 12.5675 190.653 13.0761 190.653 13.5889V43.4122C190.653 43.9299 190.653 44.435 190.64 44.9443C190.64 45.4077 190.64 45.8322 190.634 46.2691C190.615 47.1543 190.524 48.0371 190.361 48.9104C190.212 49.7384 189.921 50.541 189.499 51.2901C189.078 52.0203 188.53 52.6867 187.877 53.2647C187.224 53.8544 186.47 54.3464 185.642 54.7218C184.803 55.1008 183.905 55.3649 182.978 55.5052C181.991 55.6491 180.994 55.7268 179.993 55.7377C179.526 55.7474 179.036 55.7529 178.56 55.7529L176.829 55.7558L14.4383 55.7529Z" fill="black"/>
<path d="M40.5071 28.9283C40.5243 27.7389 40.8783 26.5727 41.5363 25.5382C42.1943 24.5037 43.1348 23.6346 44.2704 23.0116C43.549 22.0923 42.5973 21.3357 41.4909 20.8019C40.3845 20.2682 39.1539 19.972 37.8968 19.9369C35.2152 19.6858 32.6155 21.3688 31.249 21.3688C29.856 21.3688 27.7521 19.9619 25.4865 20.0035C24.021 20.0457 22.5928 20.426 21.341 21.1072C20.0892 21.7884 19.0565 22.7474 18.3436 23.8907C15.2551 28.6621 17.5588 35.6746 20.5173 39.5315C21.9975 41.4201 23.7274 43.5298 25.9909 43.455C28.206 43.373 29.0332 42.1946 31.707 42.1946C34.3559 42.1946 35.132 43.455 37.4415 43.4074C39.8184 43.373 41.3159 41.5104 42.7441 39.6039C43.8076 38.2582 44.626 36.7709 45.1689 35.1971C43.7881 34.6759 42.6097 33.8036 41.7807 32.6888C40.9517 31.574 40.5087 30.2662 40.5071 28.9283Z" fill="white"/>
<path d="M36.1454 17.4004C37.4414 16.0121 38.0798 14.2278 37.9252 12.4263C35.9453 12.6118 34.1164 13.4562 32.803 14.7912C32.1608 15.4434 31.6689 16.2021 31.3556 17.024C31.0422 17.8459 30.9134 18.7148 30.9766 19.5812C31.9669 19.5903 32.9466 19.3987 33.8419 19.021C34.7373 18.6432 35.5249 18.0891 36.1454 17.4004Z" fill="white"/>
<path d="M68.5064 38.6739H60.9476L59.1323 43.4568H55.9307L63.0903 25.7612H66.4167L73.5763 43.4568H70.3201L68.5064 38.6739ZM61.7304 36.4668H67.7221L64.7684 28.7045H64.6857L61.7304 36.4668Z" fill="white"/>
<path d="M89.039 37.0068C89.039 41.016 86.6343 43.5918 83.0054 43.5918C82.0861 43.6347 81.1718 43.4458 80.3673 43.0466C79.5628 42.6474 78.9005 42.0541 78.4563 41.3346H78.3876V47.7248H75.4199V30.5553H78.2926V32.7012H78.3471C78.8118 31.9852 79.4852 31.395 80.2959 30.9933C81.1065 30.5917 82.024 30.3937 82.9508 30.4203C86.6202 30.4204 89.039 33.0087 89.039 37.0068ZM85.9887 37.0068C85.9887 34.3948 84.4759 32.6775 82.1679 32.6775C79.9004 32.6775 78.3752 34.4309 78.3752 37.0068C78.3752 39.6063 79.9004 41.3472 82.1679 41.3472C84.476 41.3472 85.9887 39.6425 85.9887 37.0068Z" fill="white"/>
<path d="M104.952 37.0068C104.952 41.016 102.547 43.5918 98.9184 43.5918C97.9992 43.6347 97.0849 43.4458 96.2804 43.0466C95.4759 42.6474 94.8136 42.0541 94.3694 41.3346H94.3007V47.7248H91.333V30.5553H94.2056V32.7012H94.2602C94.7248 31.9852 95.3983 31.3949 96.2089 30.9933C97.0196 30.5917 97.9371 30.3937 98.8638 30.4203C102.533 30.4203 104.952 33.0087 104.952 37.0068ZM101.902 37.0068C101.902 34.3948 100.389 32.6775 98.081 32.6775C95.8135 32.6775 94.2883 34.4309 94.2883 37.0068C94.2883 39.6063 95.8135 41.3472 98.081 41.3472C100.389 41.3472 101.902 39.6425 101.902 37.0068Z" fill="white"/>
<path d="M115.469 38.5263C115.689 40.2811 117.599 41.4333 120.209 41.4333C122.711 41.4333 124.511 40.281 124.511 38.6988C124.511 37.3253 123.425 36.5029 120.855 35.9392L118.285 35.3868C114.644 34.6019 112.953 33.0823 112.953 30.6164C112.953 27.5632 115.935 25.4661 120.169 25.4661C124.359 25.4661 127.232 27.5632 127.329 30.6164H124.333C124.153 28.8504 122.517 27.7845 120.127 27.7845C117.736 27.7845 116.1 28.863 116.1 30.4327C116.1 31.6837 117.145 32.4199 119.701 32.9834L121.886 33.4621C125.955 34.3208 127.645 35.7792 127.645 38.3675C127.645 41.6781 124.69 43.7516 119.99 43.7516C115.592 43.7516 112.622 41.7268 112.431 38.5261L115.469 38.5263Z" fill="white"/>
<path d="M134.051 27.502V30.5551H136.8V32.6523H134.051V39.7647C134.051 40.8696 134.601 41.3845 135.81 41.3845C136.136 41.3795 136.462 41.359 136.786 41.3233V43.4079C136.243 43.4985 135.69 43.5395 135.138 43.5303C132.211 43.5303 131.069 42.5492 131.069 40.0472V32.6523H128.967V30.5551H131.069V27.502H134.051Z" fill="white"/>
<path d="M138.392 37.0066C138.392 32.9473 141.071 30.3965 145.249 30.3965C149.441 30.3965 152.107 32.9472 152.107 37.0066C152.107 41.077 149.455 43.6167 145.249 43.6167C141.044 43.6167 138.392 41.077 138.392 37.0066ZM149.083 37.0066C149.083 34.222 147.653 32.5785 145.249 32.5785C142.844 32.5785 141.415 34.2345 141.415 37.0066C141.415 39.8023 142.844 41.4332 145.249 41.4332C147.653 41.4332 149.083 39.8023 149.083 37.0066Z" fill="white"/>
<path d="M154.555 30.5552H157.385V32.7511H157.454C157.645 32.0653 158.096 31.4592 158.729 31.0347C159.362 30.6102 160.14 30.3932 160.932 30.4202C161.274 30.4191 161.615 30.4523 161.948 30.519V32.9961C161.517 32.8783 161.066 32.8243 160.615 32.836C160.184 32.8204 159.754 32.8883 159.355 33.0349C158.956 33.1815 158.597 33.4034 158.303 33.6854C158.01 33.9674 157.788 34.3028 157.653 34.6685C157.518 35.0343 157.474 35.4217 157.522 35.8043V43.4567H154.555L154.555 30.5552Z" fill="white"/>
<path d="M175.631 39.6673C175.232 42.0094 172.676 43.6167 169.405 43.6167C165.199 43.6167 162.589 41.102 162.589 37.0678C162.589 33.021 165.213 30.3965 169.281 30.3965C173.281 30.3965 175.796 32.8485 175.796 36.7603V37.6676H165.585V37.8276C165.538 38.3024 165.604 38.7807 165.78 39.2308C165.956 39.6809 166.237 40.0924 166.605 40.438C166.973 40.7837 167.419 41.0555 167.914 41.2355C168.408 41.4155 168.94 41.4995 169.474 41.4819C170.175 41.5406 170.879 41.3956 171.481 41.0687C172.082 40.7417 172.55 40.2502 172.813 39.6673L175.631 39.6673ZM165.599 35.8168H172.827C172.854 35.3898 172.781 34.9626 172.614 34.5619C172.447 34.1612 172.189 33.7956 171.856 33.4881C171.523 33.1807 171.122 32.9379 170.679 32.7752C170.236 32.6124 169.76 32.5331 169.281 32.5423C168.797 32.5398 168.318 32.6226 167.871 32.7861C167.424 32.9496 167.017 33.1905 166.675 33.495C166.333 33.7994 166.061 34.1613 165.877 34.5598C165.692 34.9583 165.597 35.3855 165.599 35.8168Z" fill="white"/>
<path d="M61.3588 12.4415C61.981 12.4017 62.6053 12.4856 63.1868 12.6871C63.7682 12.8886 64.2923 13.2028 64.7212 13.607C65.1501 14.0112 65.4732 14.4952 65.6671 15.0243C65.8609 15.5533 65.9208 16.1142 65.8423 16.6664C65.8423 19.3828 64.1971 20.9443 61.3588 20.9443H57.917V12.4415H61.3588ZM59.3969 19.7418H61.1935C61.6381 19.7655 62.083 19.7005 62.4959 19.5514C62.9087 19.4023 63.2792 19.173 63.5802 18.88C63.8812 18.5871 64.1052 18.238 64.2359 17.858C64.3666 17.4781 64.4008 17.0769 64.3359 16.6837C64.3961 16.2921 64.3585 15.8934 64.2257 15.5163C64.093 15.1391 63.8684 14.7929 63.5681 14.5023C63.2678 14.2117 62.8991 13.9839 62.4886 13.8354C62.0781 13.6869 61.6358 13.6212 61.1935 13.6431H59.3969V19.7418Z" fill="white"/>
<path d="M66.6293 17.78C66.5841 17.3583 66.6382 16.9329 66.788 16.5309C66.9379 16.129 67.1802 15.7594 67.4995 15.4459C67.8188 15.1325 68.208 14.882 68.6421 14.7106C69.0763 14.5392 69.5457 14.4507 70.0204 14.4507C70.4952 14.4507 70.9646 14.5392 71.3988 14.7106C71.8329 14.882 72.2221 15.1325 72.5414 15.4459C72.8607 15.7594 73.103 16.129 73.2529 16.5309C73.4027 16.9329 73.4568 17.3583 73.4116 17.78C73.4576 18.2021 73.4042 18.6282 73.2548 19.0308C73.1053 19.4334 72.8631 19.8036 72.5437 20.1177C72.2244 20.4318 71.8349 20.6828 71.4003 20.8545C70.9658 21.0263 70.4957 21.115 70.0204 21.115C69.5452 21.115 69.0751 21.0263 68.6406 20.8545C68.206 20.6828 67.8165 20.4318 67.4972 20.1177C67.1778 19.8036 66.9356 19.4334 66.7861 19.0308C66.6367 18.6282 66.5833 18.2021 66.6293 17.78ZM71.9519 17.78C71.9519 16.3891 71.2516 15.5757 70.0228 15.5757C68.7892 15.5757 68.0953 16.3891 68.0953 17.78C68.0953 19.1821 68.7893 19.9892 70.0228 19.9892C71.2517 19.9892 71.9519 19.1765 71.9519 17.78Z" fill="white"/>
<path d="M83.3121 20.9442H81.84L80.3538 16.2184H80.2415L78.7615 20.9442H77.3034L75.3213 14.5276H76.7607L78.0489 19.4239H78.1549L79.6333 14.5276H80.9947L82.4731 19.4239H82.5854L83.8673 14.5276H85.2865L83.3121 20.9442Z" fill="white"/>
<path d="M86.9531 14.5276H88.3192V15.547H88.4253C88.6052 15.1809 88.9086 14.874 89.2933 14.669C89.6779 14.4641 90.1246 14.3714 90.5712 14.4038C90.921 14.3803 91.2724 14.4274 91.5991 14.5415C91.9258 14.6557 92.2196 14.8339 92.4586 15.0631C92.6976 15.2923 92.8758 15.5666 92.9799 15.8656C93.0841 16.1646 93.1115 16.4806 93.0601 16.7904V20.9442H91.641V17.1084C91.641 16.0772 91.1388 15.5644 90.0893 15.5644C89.8517 15.5545 89.6146 15.5906 89.3941 15.6701C89.1736 15.7497 88.9751 15.8709 88.812 16.0253C88.6489 16.1798 88.5252 16.3638 88.4493 16.565C88.3734 16.7661 88.3471 16.9794 88.3723 17.1905V20.9443H86.9531L86.9531 14.5276Z" fill="white"/>
<path d="M95.3213 12.0227H96.7404V20.9442H95.3213V12.0227Z" fill="white"/>
<path d="M98.7133 17.7333C98.6681 17.3115 98.7222 16.8861 98.8721 16.4841C99.022 16.0821 99.2644 15.7126 99.5837 15.3991C99.903 15.0856 100.292 14.8351 100.726 14.6637C101.161 14.4923 101.63 14.4038 102.105 14.4038C102.58 14.4038 103.049 14.4923 103.483 14.6637C103.917 14.8351 104.307 15.0856 104.626 15.3991C104.945 15.7126 105.188 16.0821 105.337 16.4841C105.487 16.8861 105.541 17.3115 105.496 17.7333C105.542 18.1554 105.489 18.5814 105.339 18.984C105.19 19.3866 104.948 19.7569 104.628 20.0709C104.309 20.385 103.919 20.636 103.485 20.8078C103.05 20.9795 102.58 21.0682 102.105 21.0682C101.629 21.0682 101.159 20.9795 100.725 20.8078C100.29 20.636 99.9008 20.385 99.5814 20.0709C99.262 19.7569 99.0197 19.3866 98.8702 18.984C98.7207 18.5814 98.6673 18.1554 98.7133 17.7333ZM104.036 17.7333C104.036 16.3424 103.336 15.529 102.107 15.529C100.873 15.529 100.179 16.3424 100.179 17.7333C100.179 19.1353 100.873 19.9424 102.107 19.9424C103.336 19.9424 104.036 19.1297 104.036 17.7333Z" fill="white"/>
<path d="M106.99 19.1297C106.99 17.9746 107.954 17.3088 109.665 17.2141L111.613 17.1139V16.5601C111.613 15.8824 111.11 15.4997 110.14 15.4997C109.348 15.4997 108.799 15.7592 108.642 16.2129H107.268C107.413 15.1107 108.575 14.4038 110.206 14.4038C112.009 14.4038 113.025 15.2047 113.025 16.5601V20.9443H111.659V20.0426H111.547C111.319 20.366 110.999 20.6297 110.62 20.8067C110.24 20.9837 109.815 21.0677 109.387 21.05C109.085 21.078 108.78 21.0493 108.492 20.9657C108.203 20.882 107.937 20.7453 107.711 20.5644C107.485 20.3835 107.305 20.1623 107.18 19.9152C107.056 19.6681 106.991 19.4005 106.99 19.1297ZM111.613 18.5814V18.0449L109.857 18.1451C108.866 18.2042 108.417 18.5048 108.417 19.0705C108.417 19.648 108.979 19.9841 109.751 19.9841C109.977 20.0045 110.205 19.9841 110.422 19.9242C110.64 19.8642 110.841 19.7658 111.015 19.635C111.189 19.5041 111.331 19.3434 111.434 19.1624C111.536 18.9814 111.597 18.7838 111.613 18.5814Z" fill="white"/>
<path d="M114.891 17.7331C114.891 15.7056 116.059 14.4211 117.875 14.4211C118.325 14.4027 118.771 14.4987 119.161 14.6981C119.552 14.8974 119.871 15.1918 120.081 15.5469H120.187V12.0227H121.606V20.9442H120.246V19.9304H120.134C119.908 20.2831 119.578 20.5739 119.18 20.7712C118.782 20.9685 118.331 21.0649 117.876 21.05C116.046 21.0501 114.891 19.7656 114.891 17.7331ZM116.357 17.7331C116.357 19.0941 117.076 19.9131 118.278 19.9131C119.474 19.9131 120.213 19.0823 120.213 17.7387C120.213 16.4014 119.466 15.5588 118.278 15.5588C117.083 15.5588 116.357 16.3833 116.357 17.7331Z" fill="white"/>
<path d="M127.478 17.7331C127.433 17.3115 127.487 16.886 127.637 16.484C127.787 16.0821 128.029 15.7125 128.348 15.3991C128.667 15.0856 129.057 14.8351 129.491 14.6637C129.925 14.4923 130.394 14.4038 130.869 14.4038C131.344 14.4038 131.813 14.4923 132.247 14.6637C132.682 14.8351 133.071 15.0856 133.39 15.3991C133.709 15.7125 133.952 16.0821 134.101 16.484C134.251 16.886 134.305 17.3115 134.26 17.7331C134.306 18.1553 134.253 18.5813 134.103 18.9839C133.954 19.3865 133.712 19.7567 133.392 20.0708C133.073 20.3849 132.684 20.6359 132.249 20.8077C131.814 20.9794 131.344 21.0682 130.869 21.0682C130.394 21.0682 129.924 20.9794 129.489 20.8077C129.055 20.6359 128.665 20.3849 128.346 20.0708C128.026 19.7567 127.784 19.3865 127.635 18.9839C127.485 18.5813 127.432 18.1553 127.478 17.7331ZM132.801 17.7331C132.801 16.3422 132.1 15.5289 130.871 15.5289C129.638 15.5289 128.944 16.3422 128.944 17.7332C128.944 19.1352 129.638 19.9423 130.871 19.9423C132.1 19.9423 132.801 19.1296 132.801 17.7331Z" fill="white"/>
<path d="M136.164 14.5276H137.53V15.547H137.636C137.816 15.1809 138.12 14.874 138.504 14.669C138.889 14.4641 139.336 14.3714 139.782 14.4038C140.132 14.3803 140.483 14.4274 140.81 14.5415C141.137 14.6557 141.431 14.8339 141.67 15.0631C141.909 15.2923 142.087 15.5666 142.191 15.8656C142.295 16.1646 142.322 16.4806 142.271 16.7904V20.9442H140.852V17.1084C140.852 16.0772 140.35 15.5644 139.3 15.5644C139.063 15.5545 138.826 15.5906 138.605 15.6701C138.385 15.7497 138.186 15.8709 138.023 16.0253C137.86 16.1798 137.736 16.3638 137.66 16.565C137.584 16.7661 137.558 16.9794 137.583 17.1905V20.9443H136.164V14.5276Z" fill="white"/>
<path d="M150.29 12.9299V14.5567H151.848V15.6234H150.29V18.9228C150.29 19.595 150.6 19.8893 151.307 19.8893C151.487 19.8888 151.668 19.879 151.848 19.8601V20.9149C151.593 20.9556 151.335 20.9772 151.076 20.9796C149.498 20.9796 148.869 20.4842 148.869 19.2471V15.6233H147.728V14.5566H148.869V12.9299H150.29Z" fill="white"/>
<path d="M153.786 12.0227H155.193V15.5588H155.305C155.494 15.1892 155.805 14.8806 156.198 14.6749C156.59 14.4692 157.044 14.3765 157.498 14.4093C157.846 14.3924 158.194 14.4443 158.517 14.5612C158.84 14.6781 159.13 14.8572 159.366 15.0856C159.603 15.3141 159.78 15.5864 159.885 15.883C159.99 16.1795 160.021 16.4932 159.974 16.8015V20.9442H158.554V17.1139C158.554 16.0889 158.019 15.5699 157.016 15.5699C156.772 15.552 156.527 15.5819 156.297 15.6575C156.067 15.7331 155.859 15.8526 155.687 16.0076C155.514 16.1625 155.382 16.3492 155.299 16.5546C155.216 16.76 155.184 16.9791 155.205 17.1966V20.9442H153.786L153.786 12.0227Z" fill="white"/>
<path d="M168.249 19.2116C168.056 19.7981 167.638 20.3054 167.068 20.6447C166.499 20.9841 165.814 21.1339 165.133 21.068C164.659 21.0792 164.188 20.9982 163.753 20.8307C163.318 20.6633 162.929 20.4133 162.613 20.0982C162.297 19.783 162.061 19.4103 161.923 19.0059C161.784 18.6014 161.746 18.175 161.811 17.756C161.748 17.3358 161.787 16.9084 161.925 16.5028C162.063 16.0971 162.297 15.7227 162.611 15.4048C162.926 15.0869 163.313 14.833 163.747 14.6603C164.181 14.4876 164.651 14.4001 165.126 14.4037C167.127 14.4037 168.334 15.6235 168.334 17.6384V18.0803H163.257V18.1513C163.234 18.3867 163.268 18.6237 163.354 18.8471C163.44 19.0705 163.578 19.2753 163.758 19.4483C163.939 19.6214 164.158 19.759 164.401 19.8521C164.644 19.9453 164.907 19.9921 165.172 19.9895C165.511 20.0259 165.855 19.9713 166.16 19.8328C166.464 19.6943 166.716 19.478 166.882 19.2116L168.249 19.2116ZM163.257 17.1437H166.889C166.906 16.9284 166.874 16.7121 166.792 16.5087C166.711 16.3053 166.583 16.1194 166.416 15.9628C166.249 15.8063 166.048 15.6826 165.824 15.5997C165.601 15.5168 165.361 15.4765 165.119 15.4815C164.873 15.4787 164.63 15.5198 164.402 15.6024C164.175 15.685 163.968 15.8073 163.795 15.9622C163.621 16.1172 163.484 16.3015 163.392 16.5044C163.299 16.7073 163.253 16.9247 163.257 17.1437Z" fill="white"/>
</g>
<defs>
<clipPath id="clip0_5446_83616">
<rect width="192" height="57" fill="white" transform="translate(0.5)"/>
</clipPath>
</defs>
</svg>
