<svg width="193" height="57" viewBox="0 0 193 57" fill="none" xmlns="http://www.w3.org/2000/svg">
<g clip-path="url(#clip0_5446_83651)">
<path d="M185.128 56.7285H7.35037C3.43926 56.7285 0.239258 53.5223 0.239258 49.6035V6.85352C0.239258 2.93477 3.43926 -0.271484 7.35037 -0.271484H185.128C189.039 -0.271484 192.239 2.93477 192.239 6.85352V49.6035C192.239 53.5223 189.039 56.7285 185.128 56.7285Z" fill="black"/>
<path d="M185.629 0.879373C188.938 0.879373 191.619 3.58389 191.619 6.92137V50.0785C191.619 53.416 188.938 56.1205 185.629 56.1205H7.36965C4.06115 56.1205 1.38012 53.416 1.38012 50.0785V6.92137C1.38012 3.58389 4.06115 0.879373 7.36965 0.879373H185.629ZM185.629 -0.271484H7.36965C3.44793 -0.271484 0.239258 2.9653 0.239258 6.92137V50.0785C0.239258 54.0346 3.44793 57.2714 7.36965 57.2714H185.629C189.551 57.2714 192.76 54.0346 192.76 50.0785V6.92137C192.76 2.9653 189.551 -0.271484 185.629 -0.271484Z" fill="#A6A6A6"/>
<path d="M67.8643 14.4596C67.8643 15.668 67.5078 16.6318 66.7947 17.3367C65.9961 18.1855 64.9408 18.617 63.6574 18.617C62.4167 18.617 61.3756 18.1855 60.5057 17.3223C59.6358 16.4592 59.208 15.3802 59.208 14.1143C59.208 12.834 59.6358 11.7694 60.5057 10.9063C61.3756 10.0431 62.4167 9.61157 63.6574 9.61157C64.2706 9.61157 64.8553 9.72666 65.4114 9.97122C65.9676 10.2158 66.4097 10.5323 66.752 10.9351L65.9961 11.6975C65.4257 11.0214 64.6556 10.6761 63.6574 10.6761C62.7589 10.6761 61.9746 10.9926 61.3186 11.64C60.6626 12.2729 60.3346 13.1073 60.3346 14.1287C60.3346 15.1501 60.6626 15.9844 61.3186 16.6174C61.9746 17.2504 62.7589 17.5813 63.6574 17.5813C64.6128 17.5813 65.4114 17.2648 66.0532 16.6174C66.4667 16.2002 66.7092 15.6104 66.7662 14.8624H63.6574V13.8266H67.8073C67.8358 14.0424 67.8643 14.2582 67.8643 14.4596Z" fill="white" stroke="white" stroke-width="0.2" stroke-miterlimit="10"/>
<path d="M74.4385 10.8631H70.5453V13.5964H74.0535V14.6322H70.5453V17.3655H74.4385V18.43H69.4473V9.79858H74.4385V10.8631Z" fill="white" stroke="white" stroke-width="0.2" stroke-miterlimit="10"/>
<path d="M79.074 18.43H77.9759V10.8631H75.5801V9.79858H81.4555V10.8631H79.0597V18.43H79.074Z" fill="white" stroke="white" stroke-width="0.2" stroke-miterlimit="10"/>
<path d="M85.7188 18.43V9.79858H86.8168V18.43H85.7188Z" fill="white" stroke="white" stroke-width="0.2" stroke-miterlimit="10"/>
<path d="M91.6941 18.43H90.596V10.8631H88.2002V9.79858H94.0756V10.8631H91.6798V18.43H91.6941Z" fill="white" stroke="white" stroke-width="0.2" stroke-miterlimit="10"/>
<path d="M105.213 17.3079C104.372 18.1855 103.331 18.617 102.076 18.617C100.821 18.617 99.7799 18.1855 98.9385 17.3079C98.0972 16.4304 97.6836 15.3659 97.6836 14.1143C97.6836 12.8627 98.0972 11.7838 98.9385 10.9207C99.7799 10.0431 100.821 9.61157 102.076 9.61157C103.317 9.61157 104.358 10.0431 105.213 10.9207C106.055 11.7982 106.482 12.8627 106.482 14.1143C106.468 15.3802 106.055 16.4448 105.213 17.3079ZM99.7514 16.5886C100.379 17.236 101.163 17.5525 102.076 17.5525C102.989 17.5525 103.773 17.236 104.4 16.5886C105.028 15.9413 105.356 15.1213 105.356 14.1143C105.356 13.1073 105.042 12.2873 104.4 11.64C103.773 10.9926 102.989 10.6761 102.076 10.6761C101.163 10.6761 100.379 10.9926 99.7514 11.64C99.1239 12.2873 98.7959 13.1073 98.7959 14.1143C98.7959 15.1213 99.1239 15.9413 99.7514 16.5886Z" fill="white" stroke="white" stroke-width="0.2" stroke-miterlimit="10"/>
<path d="M108.022 18.43V9.79858H109.363L113.527 16.5167H113.57L113.527 14.848V9.79858H114.625V18.43H113.484L109.135 11.3954H109.092L109.135 13.0641V18.43H108.022Z" fill="white" stroke="white" stroke-width="0.2" stroke-miterlimit="10"/>
<path d="M97.4123 31.0174C94.061 31.0174 91.323 33.5924 91.323 37.1313C91.323 40.6558 94.061 43.2452 97.4123 43.2452C100.764 43.2452 103.502 40.6558 103.502 37.1313C103.502 33.5924 100.764 31.0174 97.4123 31.0174ZM97.4123 40.8428C95.5727 40.8428 93.9897 39.3179 93.9897 37.1313C93.9897 34.9303 95.5727 33.4198 97.4123 33.4198C99.252 33.4198 100.835 34.9303 100.835 37.1313C100.835 39.3179 99.2377 40.8428 97.4123 40.8428ZM84.1213 31.0174C80.77 31.0174 78.0319 33.5924 78.0319 37.1313C78.0319 40.6558 80.77 43.2452 84.1213 43.2452C87.4726 43.2452 90.2106 40.6558 90.2106 37.1313C90.2106 33.5924 87.4726 31.0174 84.1213 31.0174ZM84.1213 40.8428C82.2816 40.8428 80.6987 39.3179 80.6987 37.1313C80.6987 34.9303 82.2816 33.4198 84.1213 33.4198C85.9609 33.4198 87.5439 34.9303 87.5439 37.1313C87.5439 39.3179 85.9609 40.8428 84.1213 40.8428ZM68.3203 32.9019V35.4913H74.481C74.2956 36.9443 73.8107 38.0232 73.0834 38.7569C72.185 39.6632 70.7875 40.6558 68.3346 40.6558C64.5412 40.6558 61.575 37.5773 61.575 33.7507C61.575 29.9241 64.5412 26.8455 68.3346 26.8455C70.3739 26.8455 71.8713 27.6511 72.9694 28.7013L74.7805 26.8743C73.2403 25.3926 71.201 24.2561 68.3203 24.2561C63.1294 24.2561 58.7656 28.5143 58.7656 33.7651C58.7656 39.0015 63.1294 43.274 68.3203 43.274C71.1297 43.274 73.2403 42.3533 74.8946 40.6127C76.5916 38.9008 77.1192 36.484 77.1192 34.5419C77.1192 33.9377 77.0765 33.3766 76.9766 32.9163H68.3203V32.9019ZM132.936 34.9159C132.437 33.5493 130.897 31.0174 127.745 31.0174C124.622 31.0174 122.026 33.4917 122.026 37.1313C122.026 40.5551 124.593 43.2452 128.044 43.2452C130.825 43.2452 132.437 41.5333 133.093 40.5407L131.025 39.1453C130.34 40.1667 129.399 40.8428 128.044 40.8428C126.69 40.8428 125.72 40.2099 125.107 38.9871L133.221 35.6064L132.936 34.9159ZM124.665 36.9587C124.593 34.5994 126.476 33.391 127.831 33.391C128.886 33.391 129.784 33.9233 130.084 34.6857L124.665 36.9587ZM118.076 42.8856H120.743V24.9035H118.076V42.8856ZM113.712 32.384H113.613C113.014 31.6647 111.873 31.0174 110.418 31.0174C107.381 31.0174 104.6 33.7075 104.6 37.1601C104.6 40.5839 107.381 43.2596 110.418 43.2596C111.858 43.2596 113.014 42.6123 113.613 41.8642H113.698V42.7418C113.698 45.0866 112.457 46.3382 110.461 46.3382C108.835 46.3382 107.823 45.1585 107.409 44.1659L105.085 45.1442C105.755 46.7697 107.523 48.755 110.461 48.755C113.584 48.755 116.222 46.8992 116.222 42.3821V31.3914H113.698V32.384H113.712ZM110.646 40.8428C108.807 40.8428 107.267 39.2892 107.267 37.1601C107.267 35.0022 108.807 33.4342 110.646 33.4342C112.457 33.4342 113.884 35.0166 113.884 37.1601C113.898 39.2892 112.472 40.8428 110.646 40.8428ZM145.428 24.9035H139.054V42.8856H141.721V36.0668H145.443C148.395 36.0668 151.29 33.9089 151.29 30.4851C151.29 27.0613 148.366 24.9035 145.428 24.9035ZM145.485 33.5637H141.706V27.3922H145.485C147.482 27.3922 148.609 29.0609 148.609 30.4707C148.609 31.8805 147.482 33.5637 145.485 33.5637ZM161.942 30.9886C160.017 30.9886 158.021 31.8518 157.193 33.7363L159.561 34.7289C160.06 33.7363 161.001 33.4054 161.985 33.4054C163.354 33.4054 164.766 34.2398 164.78 35.7215V35.9085C164.295 35.6352 163.269 35.218 161.999 35.218C159.447 35.218 156.865 36.6278 156.865 39.2604C156.865 41.6628 158.948 43.2165 161.286 43.2165C163.069 43.2165 164.067 42.4109 164.68 41.4614H164.766V42.8568H167.333V35.9661C167.347 32.7724 164.98 30.9886 161.942 30.9886ZM161.614 40.8428C160.744 40.8428 159.532 40.3969 159.532 39.3179C159.532 37.9369 161.044 37.4046 162.356 37.4046C163.525 37.4046 164.081 37.6636 164.78 38.0088C164.581 39.6632 163.155 40.8428 161.614 40.8428ZM176.702 31.377L173.65 39.1741H173.565L170.399 31.377H167.533L172.281 42.2814L169.572 48.3378H172.353L179.668 31.377H176.702ZM152.744 42.8856H155.411V24.9035H152.744V42.8856Z" fill="white"/>
<path d="M15.1277 10.5753C14.7141 11.0213 14.4717 11.7118 14.4717 12.5893V44.4105C14.4717 45.3024 14.7141 45.9929 15.1277 46.4245L15.2275 46.5252L32.8966 28.7157V28.4999V28.2841L15.2275 10.4746L15.1277 10.5753Z" fill="url(#paint0_linear_5446_83651)"/>
<path d="M38.7852 34.6569L32.8955 28.7156V28.4999V28.2841L38.7852 22.3428L38.9136 22.4147L45.8871 26.4139C47.8836 27.5504 47.8836 29.4205 45.8871 30.5714L38.9136 34.5706L38.7852 34.6569Z" fill="url(#paint1_linear_5446_83651)"/>
<path d="M38.9139 34.5705L32.8959 28.4998L15.127 46.4244C15.7829 47.1293 16.8668 47.2156 18.0932 46.5107L38.9139 34.5705Z" fill="url(#paint2_linear_5446_83651)"/>
<path d="M38.9145 22.4291L18.0795 10.489C16.8531 9.78406 15.7693 9.87037 15.1133 10.5753L32.8965 28.4999L38.9145 22.4291Z" fill="url(#paint3_linear_5446_83651)"/>
<path opacity="0.2" d="M38.7866 34.4412L18.0799 46.3094C16.9248 46.9711 15.8838 46.928 15.2278 46.3238L15.1279 46.4245L15.2278 46.5252C15.898 47.1294 16.9248 47.1725 18.0799 46.5108L38.9149 34.5706L38.7866 34.4412Z" fill="black"/>
<path opacity="0.12" d="M15.1277 46.223C14.7141 45.777 14.4717 45.0865 14.4717 44.209V44.4248C14.4717 45.3167 14.7141 46.0072 15.1277 46.4388L15.2275 46.3381L15.1277 46.223Z" fill="black"/>
<path opacity="0.12" d="M45.8876 30.3699L38.7715 34.4411L38.8998 34.5705L45.8734 30.5713C46.8716 29.9959 47.3707 29.2478 47.3707 28.4998C47.2994 29.1759 46.8003 29.852 45.8876 30.3699Z" fill="black"/>
<path opacity="0.25" d="M18.0793 10.6903L45.8878 26.6297C46.7862 27.1476 47.2996 27.8093 47.3852 28.4999C47.3852 27.7518 46.886 26.9894 45.8878 26.4283L18.0793 10.4889C16.0828 9.35247 14.457 10.3019 14.457 12.6036V12.8194C14.457 10.5033 16.097 9.55387 18.0793 10.6903Z" fill="white"/>
</g>
<defs>
<linearGradient id="paint0_linear_5446_83651" x1="31.3275" y1="12.258" x2="7.18573" y2="36.1901" gradientUnits="userSpaceOnUse">
<stop stop-color="#00A0FF"/>
<stop offset="0.00657445" stop-color="#00A1FF"/>
<stop offset="0.2601" stop-color="#00BEFF"/>
<stop offset="0.5122" stop-color="#00D2FF"/>
<stop offset="0.7604" stop-color="#00DFFF"/>
<stop offset="1" stop-color="#00E3FF"/>
</linearGradient>
<linearGradient id="paint1_linear_5446_83651" x1="48.4888" y1="28.5019" x2="13.9822" y2="28.5019" gradientUnits="userSpaceOnUse">
<stop stop-color="#FFE000"/>
<stop offset="0.4087" stop-color="#FFBD00"/>
<stop offset="0.7754" stop-color="#FFA500"/>
<stop offset="1" stop-color="#FF9C00"/>
</linearGradient>
<linearGradient id="paint2_linear_5446_83651" x1="35.6439" y1="31.8029" x2="2.90573" y2="64.2567" gradientUnits="userSpaceOnUse">
<stop stop-color="#FF3A44"/>
<stop offset="1" stop-color="#C31162"/>
</linearGradient>
<linearGradient id="paint3_linear_5446_83651" x1="10.6458" y1="-0.0180791" x2="25.2649" y2="14.4739" gradientUnits="userSpaceOnUse">
<stop stop-color="#32A071"/>
<stop offset="0.0685" stop-color="#2DA771"/>
<stop offset="0.4762" stop-color="#15CF74"/>
<stop offset="0.8009" stop-color="#06E775"/>
<stop offset="1" stop-color="#00F076"/>
</linearGradient>
<clipPath id="clip0_5446_83651">
<rect width="192" height="57" fill="white" transform="translate(0.5)"/>
</clipPath>
</defs>
</svg>
